<mxfile host="app.diagrams.net" modified="2024-01-23T17:31:09.021Z" agent="Mozilla/5.0 (Windows NT 10.0; Win64; x64) AppleWebKit/537.36 (KHTML, like Gecko) Chrome/120.0.0.0 Safari/537.36 Edg/120.0.0.0" etag="vVJHqkYF7nqotakbvz9E" version="22.1.22" type="github">
  <diagram name="Page-1" id="BAVmtxwZr_y1X1RO7Ep4">
    <mxGraphModel dx="2213" dy="803" grid="1" gridSize="10" guides="1" tooltips="1" connect="1" arrows="1" fold="1" page="1" pageScale="1" pageWidth="827" pageHeight="1169" math="0" shadow="0">
      <root>
        <mxCell id="0" />
        <mxCell id="1" parent="0" />
        <mxCell id="HIeT9_Gt0RwVg8miw7wX-5" value="" style="group" vertex="1" connectable="0" parent="1">
          <mxGeometry x="490" y="190" width="110" height="140" as="geometry" />
        </mxCell>
        <mxCell id="HIeT9_Gt0RwVg8miw7wX-42" value="" style="group" vertex="1" connectable="0" parent="HIeT9_Gt0RwVg8miw7wX-5">
          <mxGeometry x="-20" width="130" height="140" as="geometry" />
        </mxCell>
        <mxCell id="HIeT9_Gt0RwVg8miw7wX-1" value="" style="rounded=0;whiteSpace=wrap;html=1;" vertex="1" parent="HIeT9_Gt0RwVg8miw7wX-42">
          <mxGeometry x="20" width="96" height="140" as="geometry" />
        </mxCell>
        <mxCell id="HIeT9_Gt0RwVg8miw7wX-2" value="" style="triangle;whiteSpace=wrap;html=1;rotation=0;" vertex="1" parent="HIeT9_Gt0RwVg8miw7wX-42">
          <mxGeometry x="20" y="100" width="20" height="30" as="geometry" />
        </mxCell>
        <mxCell id="HIeT9_Gt0RwVg8miw7wX-20" value="&lt;font style=&quot;font-size: 21px;&quot;&gt;CE&lt;/font&gt;" style="text;html=1;strokeColor=none;fillColor=none;align=center;verticalAlign=middle;whiteSpace=wrap;rounded=0;" vertex="1" parent="HIeT9_Gt0RwVg8miw7wX-42">
          <mxGeometry x="20" y="55" width="30" height="30" as="geometry" />
        </mxCell>
        <mxCell id="HIeT9_Gt0RwVg8miw7wX-21" value="&lt;font style=&quot;font-size: 21px;&quot;&gt;D&lt;/font&gt;" style="text;html=1;strokeColor=none;fillColor=none;align=center;verticalAlign=middle;whiteSpace=wrap;rounded=0;" vertex="1" parent="HIeT9_Gt0RwVg8miw7wX-42">
          <mxGeometry x="20" y="10" width="20" height="30" as="geometry" />
        </mxCell>
        <mxCell id="HIeT9_Gt0RwVg8miw7wX-27" value="&lt;font style=&quot;font-size: 21px;&quot;&gt;Q&lt;/font&gt;" style="text;html=1;strokeColor=none;fillColor=none;align=center;verticalAlign=middle;whiteSpace=wrap;rounded=0;" vertex="1" parent="HIeT9_Gt0RwVg8miw7wX-42">
          <mxGeometry x="96" y="10" width="20" height="30" as="geometry" />
        </mxCell>
        <mxCell id="HIeT9_Gt0RwVg8miw7wX-32" style="edgeStyle=orthogonalEdgeStyle;rounded=0;orthogonalLoop=1;jettySize=auto;html=1;exitX=0;exitY=0.5;exitDx=0;exitDy=0;endArrow=none;endFill=0;" edge="1" parent="1" source="HIeT9_Gt0RwVg8miw7wX-6">
          <mxGeometry relative="1" as="geometry">
            <mxPoint x="130" y="140" as="targetPoint" />
          </mxGeometry>
        </mxCell>
        <mxCell id="HIeT9_Gt0RwVg8miw7wX-6" value="&lt;font style=&quot;font-size: 22px;&quot;&gt;+&lt;/font&gt;" style="ellipse;whiteSpace=wrap;html=1;aspect=fixed;" vertex="1" parent="1">
          <mxGeometry x="270" y="190" width="50" height="50" as="geometry" />
        </mxCell>
        <mxCell id="HIeT9_Gt0RwVg8miw7wX-7" style="edgeStyle=orthogonalEdgeStyle;rounded=0;orthogonalLoop=1;jettySize=auto;html=1;entryX=-0.021;entryY=0.2;entryDx=0;entryDy=0;entryPerimeter=0;" edge="1" parent="1" source="HIeT9_Gt0RwVg8miw7wX-6" target="HIeT9_Gt0RwVg8miw7wX-1">
          <mxGeometry relative="1" as="geometry" />
        </mxCell>
        <mxCell id="HIeT9_Gt0RwVg8miw7wX-14" style="edgeStyle=orthogonalEdgeStyle;rounded=0;orthogonalLoop=1;jettySize=auto;html=1;exitX=0.5;exitY=1;exitDx=0;exitDy=0;entryX=0.5;entryY=1;entryDx=0;entryDy=0;" edge="1" parent="1" source="HIeT9_Gt0RwVg8miw7wX-8" target="HIeT9_Gt0RwVg8miw7wX-1">
          <mxGeometry relative="1" as="geometry" />
        </mxCell>
        <mxCell id="HIeT9_Gt0RwVg8miw7wX-8" value="&lt;p style=&quot;line-height: 120%;&quot;&gt;&lt;br&gt;&lt;/p&gt;&lt;p style=&quot;line-height: 120%;&quot;&gt;&lt;br&gt;&lt;/p&gt;" style="shape=offPageConnector;whiteSpace=wrap;html=1;rotation=-90;" vertex="1" parent="1">
          <mxGeometry x="90" y="390" width="30" height="30" as="geometry" />
        </mxCell>
        <mxCell id="HIeT9_Gt0RwVg8miw7wX-11" style="edgeStyle=orthogonalEdgeStyle;rounded=0;orthogonalLoop=1;jettySize=auto;html=1;exitX=0.5;exitY=1;exitDx=0;exitDy=0;entryX=0;entryY=0.5;entryDx=0;entryDy=0;" edge="1" parent="1" source="HIeT9_Gt0RwVg8miw7wX-9" target="HIeT9_Gt0RwVg8miw7wX-2">
          <mxGeometry relative="1" as="geometry" />
        </mxCell>
        <mxCell id="HIeT9_Gt0RwVg8miw7wX-9" value="&lt;p style=&quot;line-height: 120%;&quot;&gt;&lt;br&gt;&lt;/p&gt;&lt;p style=&quot;line-height: 120%;&quot;&gt;&lt;br&gt;&lt;/p&gt;" style="shape=offPageConnector;whiteSpace=wrap;html=1;rotation=-90;" vertex="1" parent="1">
          <mxGeometry x="90" y="290" width="30" height="30" as="geometry" />
        </mxCell>
        <mxCell id="HIeT9_Gt0RwVg8miw7wX-10" value="&lt;font style=&quot;font-size: 22px;&quot;&gt;CLK&lt;/font&gt;" style="text;html=1;align=center;verticalAlign=middle;resizable=0;points=[];autosize=1;strokeColor=none;fillColor=none;" vertex="1" parent="1">
          <mxGeometry x="20" y="285" width="70" height="40" as="geometry" />
        </mxCell>
        <mxCell id="HIeT9_Gt0RwVg8miw7wX-13" value="&lt;font style=&quot;font-size: 22px;&quot;&gt;RESET&lt;/font&gt;" style="text;html=1;align=center;verticalAlign=middle;resizable=0;points=[];autosize=1;strokeColor=none;fillColor=none;" vertex="1" parent="1">
          <mxGeometry x="-5" y="385" width="100" height="40" as="geometry" />
        </mxCell>
        <mxCell id="HIeT9_Gt0RwVg8miw7wX-28" style="edgeStyle=orthogonalEdgeStyle;rounded=0;orthogonalLoop=1;jettySize=auto;html=1;exitX=0.5;exitY=1;exitDx=0;exitDy=0;" edge="1" parent="1" source="HIeT9_Gt0RwVg8miw7wX-16" target="HIeT9_Gt0RwVg8miw7wX-1">
          <mxGeometry relative="1" as="geometry" />
        </mxCell>
        <mxCell id="HIeT9_Gt0RwVg8miw7wX-16" value="&lt;p style=&quot;line-height: 120%;&quot;&gt;&lt;br&gt;&lt;/p&gt;&lt;p style=&quot;line-height: 120%;&quot;&gt;&lt;br&gt;&lt;/p&gt;" style="shape=offPageConnector;whiteSpace=wrap;html=1;rotation=-90;" vertex="1" parent="1">
          <mxGeometry x="90" y="245" width="30" height="30" as="geometry" />
        </mxCell>
        <mxCell id="HIeT9_Gt0RwVg8miw7wX-18" value="&lt;font style=&quot;font-size: 22px;&quot;&gt;EN&lt;/font&gt;" style="text;html=1;align=center;verticalAlign=middle;resizable=0;points=[];autosize=1;strokeColor=none;fillColor=none;" vertex="1" parent="1">
          <mxGeometry x="40" y="240" width="50" height="40" as="geometry" />
        </mxCell>
        <mxCell id="HIeT9_Gt0RwVg8miw7wX-33" value="" style="endArrow=none;html=1;rounded=0;" edge="1" parent="1">
          <mxGeometry width="50" height="50" relative="1" as="geometry">
            <mxPoint x="110" y="140" as="sourcePoint" />
            <mxPoint x="160" y="140" as="targetPoint" />
          </mxGeometry>
        </mxCell>
        <mxCell id="HIeT9_Gt0RwVg8miw7wX-34" value="&lt;font style=&quot;font-size: 20px;&quot;&gt;&#39;1&#39;&lt;/font&gt;" style="text;html=1;strokeColor=none;fillColor=none;align=center;verticalAlign=middle;whiteSpace=wrap;rounded=0;" vertex="1" parent="1">
          <mxGeometry x="100" y="110" width="60" height="30" as="geometry" />
        </mxCell>
        <mxCell id="HIeT9_Gt0RwVg8miw7wX-48" style="edgeStyle=orthogonalEdgeStyle;rounded=0;orthogonalLoop=1;jettySize=auto;html=1;exitX=0;exitY=1;exitDx=0;exitDy=0;endArrow=none;endFill=0;" edge="1" parent="1" source="HIeT9_Gt0RwVg8miw7wX-35">
          <mxGeometry relative="1" as="geometry">
            <mxPoint x="730" y="320" as="targetPoint" />
          </mxGeometry>
        </mxCell>
        <mxCell id="HIeT9_Gt0RwVg8miw7wX-51" style="edgeStyle=orthogonalEdgeStyle;rounded=0;orthogonalLoop=1;jettySize=auto;html=1;exitX=1;exitY=0.5;exitDx=0;exitDy=0;endArrow=none;endFill=0;" edge="1" parent="1" source="HIeT9_Gt0RwVg8miw7wX-35">
          <mxGeometry relative="1" as="geometry">
            <mxPoint x="1020" y="235" as="targetPoint" />
          </mxGeometry>
        </mxCell>
        <mxCell id="HIeT9_Gt0RwVg8miw7wX-35" value="&lt;span style=&quot;font-size: 22px;&quot;&gt;&amp;gt;=&lt;/span&gt;" style="ellipse;whiteSpace=wrap;html=1;aspect=fixed;" vertex="1" parent="1">
          <mxGeometry x="827" y="210" width="50" height="50" as="geometry" />
        </mxCell>
        <mxCell id="HIeT9_Gt0RwVg8miw7wX-43" style="edgeStyle=orthogonalEdgeStyle;rounded=0;orthogonalLoop=1;jettySize=auto;html=1;exitX=1;exitY=0.5;exitDx=0;exitDy=0;entryX=0;entryY=0;entryDx=0;entryDy=0;" edge="1" parent="1" source="HIeT9_Gt0RwVg8miw7wX-27" target="HIeT9_Gt0RwVg8miw7wX-35">
          <mxGeometry relative="1" as="geometry" />
        </mxCell>
        <mxCell id="HIeT9_Gt0RwVg8miw7wX-44" style="edgeStyle=orthogonalEdgeStyle;rounded=0;orthogonalLoop=1;jettySize=auto;html=1;exitX=1;exitY=0.5;exitDx=0;exitDy=0;entryX=0.5;entryY=0;entryDx=0;entryDy=0;" edge="1" parent="1" source="HIeT9_Gt0RwVg8miw7wX-27" target="HIeT9_Gt0RwVg8miw7wX-6">
          <mxGeometry relative="1" as="geometry">
            <Array as="points">
              <mxPoint x="606" y="215" />
              <mxPoint x="606" y="120" />
              <mxPoint x="295" y="120" />
            </Array>
          </mxGeometry>
        </mxCell>
        <mxCell id="HIeT9_Gt0RwVg8miw7wX-49" value="&lt;span style=&quot;font-size: 20px;&quot;&gt;delai&lt;/span&gt;" style="text;html=1;strokeColor=none;fillColor=none;align=center;verticalAlign=middle;whiteSpace=wrap;rounded=0;" vertex="1" parent="1">
          <mxGeometry x="700" y="320" width="60" height="30" as="geometry" />
        </mxCell>
        <mxCell id="HIeT9_Gt0RwVg8miw7wX-50" value="" style="endArrow=none;html=1;rounded=0;" edge="1" parent="1">
          <mxGeometry width="50" height="50" relative="1" as="geometry">
            <mxPoint x="700" y="320" as="sourcePoint" />
            <mxPoint x="770" y="320" as="targetPoint" />
          </mxGeometry>
        </mxCell>
        <mxCell id="HIeT9_Gt0RwVg8miw7wX-52" value="&lt;p style=&quot;line-height: 120%;&quot;&gt;&lt;br&gt;&lt;/p&gt;&lt;p style=&quot;line-height: 120%;&quot;&gt;&lt;br&gt;&lt;/p&gt;" style="shape=offPageConnector;whiteSpace=wrap;html=1;rotation=-90;" vertex="1" parent="1">
          <mxGeometry x="1020" y="220" width="30" height="30" as="geometry" />
        </mxCell>
        <mxCell id="HIeT9_Gt0RwVg8miw7wX-53" value="&lt;font style=&quot;font-size: 22px;&quot;&gt;FINI&lt;/font&gt;" style="text;html=1;align=center;verticalAlign=middle;resizable=0;points=[];autosize=1;strokeColor=none;fillColor=none;" vertex="1" parent="1">
          <mxGeometry x="1040" y="215" width="70" height="40" as="geometry" />
        </mxCell>
      </root>
    </mxGraphModel>
  </diagram>
</mxfile>
